Coordinates
version=1
nRows=7
nColumns=40
inDegrees=yes

Units are S.I. units (second, meters, Newtons, ...)
Angles are in degrees.

endheader
time	pelvis_tilt	pelvis_list	pelvis_rotation	pelvis_tx	pelvis_ty	pelvis_tz	hip_flexion_r	hip_adduction_r	hip_rotation_r	knee_angle_r	knee_angle_r_beta	ankle_angle_r	subtalar_angle_r	mtp_angle_r	hip_flexion_l	hip_adduction_l	hip_rotation_l	knee_angle_l	knee_angle_l_beta	ankle_angle_l	subtalar_angle_l	mtp_angle_l	lumbar_extension	lumbar_bending	lumbar_rotation	arm_flex_r	arm_add_r	arm_rot_r	elbow_flex_r	pro_sup_r	wrist_flex_r	wrist_dev_r	arm_flex_l	arm_add_l	arm_rot_l	elbow_flex_l	pro_sup_l	wrist_flex_l	wrist_dev_l
      1.80000000	      0.50990430	      0.78825791	      4.22663771	      0.56228991	      0.96437182	     -1.40407388	      4.15238213	     -0.60225740	    -21.21117955	    -15.86727455	     -0.27693618	      5.08784696	     -3.93694358	     -3.13251491	     13.91539956	      7.74029024	     17.26599270	    -38.25111114	     -0.66760783	      7.48403979	     15.27730628	     10.73712965	     -4.20227056	      0.41761721	     -1.22459271	      3.41662652	    -11.23812902	    -19.97338301	     22.99746618	     89.95437384	      0.00000000	      0.00000000	     -1.72896976	     10.41921257	      8.71202192	     19.18079661	     89.95437384	      0.00000000	      0.00000000
      1.81000000	      0.30226528	      0.68635844	      4.20020462	      0.56896751	      0.96394353	     -1.40352709	      3.89476381	     -0.42764272	    -21.46928038	    -15.82401489	     -0.27618116	      5.32440511	     -3.94501802	     -3.19689856	     14.85532500	      7.75911271	     17.65210448	    -36.79121456	     -0.64212783	      7.53075247	     15.00560728	     10.66305661	     -4.01605023	      0.51176263	     -0.96921526	      3.88773274	    -11.46220189	    -19.76983991	     23.27102934	     89.95437384	      0.00000000	      0.00000000	     -2.16303842	     10.46563554	      8.81438806	     18.98242607	     89.95437384	      0.00000000	      0.00000000
      1.82000000	      0.80186667	      1.36096606	      3.73047538	      0.57633913	      0.96494495	     -1.40298463	      2.73383765	     -1.10795924	    -21.31957483	    -15.66534675	     -0.27341188	      5.69911072	     -3.24135416	     -3.79750124	     14.29864764	      6.90467123	     18.61778077	    -34.21168683	     -0.59710658	      6.79653384	     14.24953427	     10.61820355	     -4.68329272	     -0.20889435	     -0.59002219	      4.55515970	    -11.74713508	    -18.43664560	     23.39196749	     89.95437384	      0.00000000	      0.00000000	     -2.52075583	     10.38825875	     10.37513347	     18.67252095	     89.95437384	      0.00000000	      0.00000000
      1.83000000	      0.56049608	      1.22389724	      3.74987751	      0.58307064	      0.96423436	     -1.40254048	      2.45631549	     -0.87930807	    -21.60925713	    -15.48753284	     -0.27030844	      6.01382579	     -3.25295949	     -3.88500900	     15.25098599	      6.95689344	     19.01783023	    -32.68435400	     -0.57044959	      6.71776032	     14.02222506	     10.60653198	     -4.43932771	     -0.09001800	     -0.39087045	      5.04013033	    -11.94711881	    -18.23996793	     23.51915841	     89.95437384	      0.00000000	      0.00000000	     -2.90893259	     10.45647204	     10.45718513	     18.42061267	     89.95437384	      0.00000000	      0.00000000
      1.84000000	      0.84760691	      1.70441044	      3.49397203	      0.59019003	      0.96465779	     -1.40228612	      1.50892069	     -1.31324387	    -21.30445780	    -15.21721548	     -0.26559051	      6.37737424	     -2.95794729	     -4.26814570	     15.03221404	      6.26663580	     19.62280639	    -30.19359014	     -0.52697756	      5.69755173	     13.07121016	     10.65438825	     -4.83761688	     -0.61749830	     -0.18000067	      5.72347783	    -12.13993425	    -17.45542306	     23.54658732	     89.95437384	      0.00000000	      0.00000000	     -3.24562839	     10.45200081	     11.47926073	     18.10937878	     89.95437384	      0.00000000	      0.00000000
      1.85000000	      0.69387080	      1.49563342	      3.50434634	      0.59706384	      0.96385921	     -1.40196632	      1.18594518	     -1.02974607	    -21.61659920	    -15.16939451	     -0.26475588	      6.66326023	     -2.97136529	     -4.35763870	     15.83988520	      6.40995030	     19.97457615	    -28.67190641	     -0.50041917	      5.72973373	     12.85416389	     10.62312117	     -4.67822494	     -0.42757643	     -0.02395227	      6.20752544	    -12.30918048	    -17.32813535	     23.68992990	     89.95437384	      0.00000000	      0.00000000	     -3.66682896	     10.50666685	     11.61139580	     17.95023511	     89.95437384	      0.00000000	      0.00000000
      1.86000000	      1.26269032	      1.96588945	      3.28477546	      0.60449960	      0.96454789	     -1.40195696	     -0.12069284	     -1.48655665	    -21.58386439	    -14.88560018	     -0.25980273	      6.93779323	     -2.49893191	     -4.90788754	     15.16033487	      5.69667303	     20.40689225	    -25.98095326	     -0.45345318	      4.80363483	     11.70085487	     10.57555365	     -5.37370252	     -0.92753009	      0.13189453	      6.88599427	    -12.51853762	    -16.48890255	     23.67123356	     89.95437384	      0.00000000	      0.00000000	     -4.01288177	     10.48505440	     12.86529249	     17.78201164	     89.95437384	      0.00000000	      0.00000000
